<svg viewBox="0 0 114.1 122.88" xmlns="http://www.w3.org/2000/svg"><path d="m75.84 27.1a35.68 35.68 0 0 1 8.61 7.09 32.45 32.45 0 0 1 5.76 9.26 36.84 36.84 0 0 1 1.85 6 34.64 34.64 0 0 1 .24 14 38.69 38.69 0 0 1 -2.15 7.32l-.12.25c-2.06 5-5.59 9.86-9 14.66-1.75 2.42-3.48 4.82-4.94 7.15a4.69 4.69 0 0 1 -4.36 2.17l-27.56 4.1a4.7 4.7 0 0 1 -5.17-3.41 40.19 40.19 0 0 0 -2.54-5.82 24.85 24.85 0 0 0 -3-4.49c-1.43-1.63-2.88-3.29-4.29-5.2a40.42 40.42 0 0 1 -4.17-6.94 41.08 41.08 0 0 1 -2.81-8 35.84 35.84 0 0 1 -.95-8.45 35.39 35.39 0 0 1 1.11-8.79 41.69 41.69 0 0 1 3.42-8.85l.2-.35a35.55 35.55 0 0 1 7.13-8.63 33.72 33.72 0 0 1 9.46-5.83l.28-.1a35.41 35.41 0 0 1 8-2.14 37.78 37.78 0 0 1 8.77-.2 39.14 39.14 0 0 1 8.4 1.71 38.44 38.44 0 0 1 7.79 3.49zm-4 87.26a17.37 17.37 0 0 1 -6.28 6.29 16.46 16.46 0 0 1 -7.2 2.2 14.87 14.87 0 0 1 -7.36-1.45 15.1 15.1 0 0 1 -4.39-3.27l25.29-3.77zm2.41-14.15v1.65.58a22 22 0 0 1 0 3.25l-.49 2.39-30.64 4.56-.54-1.23-1.19-4.9v-1.42l32.79-4.88zm-17.91-96.44a3.84 3.84 0 0 1 3.89-3.77h.27a3.84 3.84 0 0 1 3.5 3.89 1.27 1.27 0 0 1 0 .2l-.21 8.21a2.11 2.11 0 0 1 0 .26 3.84 3.84 0 0 1 -3.87 3.54h-.27a3.84 3.84 0 0 1 -3.53-3.88 1.09 1.09 0 0 1 0-.19l.2-8.25zm-42.34 14.38a3.84 3.84 0 0 1 2.47-6.66 3.83 3.83 0 0 1 2.76 1l6.16 5.73a3.91 3.91 0 0 1 1.22 2.68 3.82 3.82 0 0 1 -1 2.76 3.86 3.86 0 0 1 -2.67 1.22 3.8 3.8 0 0 1 -2.76-1zm-10.08 42.33a3.86 3.86 0 0 1 -3.92-3.73 3.84 3.84 0 0 1 3.73-4l8.41-.28a3.84 3.84 0 0 1 4 3.72v.06.14a3.84 3.84 0 0 1 -3.73 3.77h-.15l-8.3.27zm106-11.92h.08a3.84 3.84 0 0 1 2.66.86 3.81 3.81 0 0 1 1.4 2.59.49.49 0 0 1 0 .13 3.84 3.84 0 0 1 -3.44 4.06l-8.37.89a3.83 3.83 0 0 1 -2.81-.85 3.84 3.84 0 0 1 2-6.8c2.79-.31 5.6-.63 8.4-.9zm-16.59-33.47a3.83 3.83 0 0 1 5.32-1.09 3.73 3.73 0 0 1 1.63 2.44 3.84 3.84 0 0 1 -.58 2.88l-4.68 7a3.8 3.8 0 0 1 -2.44 1.68 3.88 3.88 0 0 1 -2.88-.57 3.92 3.92 0 0 1 -1.64-2.43 3.84 3.84 0 0 1 .58-2.88l4.69-7zm-55.1 65.78a42.19 42.19 0 0 1 -7.23-10.31 31.2 31.2 0 0 1 -3.11-13.56 31.7 31.7 0 0 1 3.81-14.44.47.47 0 0 0 .05-.1 27.5 27.5 0 0 1 13.4-11.71 29.65 29.65 0 0 1 13.93-2 32.09 32.09 0 0 1 13.31 4.25 27.43 27.43 0 0 1 11.61 13.2 28.85 28.85 0 0 1 0 22.25c-2.69 6.55-8.85 13.55-12.89 19.95a1.67 1.67 0 0 0 -.67 0l-26.08 3.85a35 35 0 0 0 -6.13-11.38z" fill-rule="evenodd"/></svg>